<svg xmlns="http://www.w3.org/2000/svg" viewBox="0 0 200 200" role="img" aria-label="Mittleres Alter weiblich Avatar">
  <rect width="200" height="200" rx="32" fill="#f8e3ee"/>
  <circle cx="100" cy="110" r="54" fill="#ecc4a3"/>
  <path d="M46 100c4-40 22-63 54-63 31 0 49 23 52 66-12-15-28-22-51-22-20 0-37 7-55 19z" fill="#654138"/>
  <circle cx="80" cy="110" r="5" fill="#2f2f2f"/>
  <circle cx="120" cy="110" r="5" fill="#2f2f2f"/>
  <path d="M84 129c11 8 22 8 32 0" fill="none" stroke="#99595b" stroke-width="4" stroke-linecap="round"/>
  <path d="M75 120c1 4 4 6 7 6" fill="none" stroke="#99595b" stroke-width="2.5" stroke-linecap="round"/>
  <path d="M118 120c1 4 4 6 7 6" fill="none" stroke="#99595b" stroke-width="2.5" stroke-linecap="round"/>
  <path d="M58 178c9-27 24-39 42-39 19 0 33 12 42 39" fill="#c97aa5"/>
</svg>