<svg xmlns="http://www.w3.org/2000/svg" viewBox="0 0 200 200" role="img" aria-label="Mittleres Alter männlich Avatar">
  <rect width="200" height="200" rx="32" fill="#e6edf8"/>
  <circle cx="100" cy="108" r="54" fill="#e8bf98"/>
  <path d="M48 98c5-37 22-60 52-60 34 0 50 26 52 62-16-11-33-17-52-17-19 0-36 4-52 15z" fill="#4a3428"/>
  <circle cx="80" cy="110" r="5" fill="#2f2f2f"/>
  <circle cx="120" cy="110" r="5" fill="#2f2f2f"/>
  <path d="M84 129c11 6 22 6 32 0" fill="none" stroke="#8e5743" stroke-width="4" stroke-linecap="round"/>
  <path d="M75 120c1 4 4 6 7 6" fill="none" stroke="#8e5743" stroke-width="2.5" stroke-linecap="round"/>
  <path d="M118 120c1 4 4 6 7 6" fill="none" stroke="#8e5743" stroke-width="2.5" stroke-linecap="round"/>
  <path d="M58 178c8-28 24-39 42-39 19 0 34 13 42 39" fill="#7a93c9"/>
</svg>