<svg xmlns="http://www.w3.org/2000/svg" viewBox="0 0 200 200" role="img" aria-label="Senior männlich Avatar">
  <rect width="200" height="200" rx="32" fill="#edf1f5"/>
  <circle cx="100" cy="110" r="54" fill="#e8c5ab"/>
  <path d="M46 100c4-40 21-62 54-62 31 0 49 24 52 65-16-11-31-16-50-16-21 0-36 4-56 13z" fill="#d0d4db"/>
  <circle cx="80" cy="110" r="5" fill="#303030"/>
  <circle cx="120" cy="110" r="5" fill="#303030"/>
  <path d="M83 129c10 6 23 6 34 0" fill="none" stroke="#8a6452" stroke-width="4" stroke-linecap="round"/>
  <path d="M73 121c1 4 4 6 7 6" fill="none" stroke="#8a6452" stroke-width="2.5" stroke-linecap="round"/>
  <path d="M120 121c1 4 4 6 7 6" fill="none" stroke="#8a6452" stroke-width="2.5" stroke-linecap="round"/>
  <path d="M78 138h44" stroke="#e8e8e8" stroke-width="5" stroke-linecap="round"/>
  <path d="M58 178c8-26 24-38 42-38 19 0 34 12 42 38" fill="#93a1af"/>
</svg>